REM DIRINDEX 1\2,1\3,1\4,1\5,1\6
REM DIRNAME "folder01","folder02","folder03","folder04","folder05","folder06"
TITLE ""
FILE "Disc3Track34.mp3" MP3
  TRACK 01 AUDIO
    TITLE "3:cjc161_05077"
    INDEX 01 00:00:00
  TRACK 02 AUDIO
    TITLE "4:cjc161_05078"
    INDEX 01 00:00:69
  TRACK 03 AUDIO
    TITLE "5:cjc161_05079"
    INDEX 01 00:01:63
  TRACK 04 AUDIO
    TITLE "6:cjc161_05080"
    INDEX 01 00:02:68
  TRACK 05 AUDIO
    TITLE "0:"
    INDEX 01 00:04:61
  TRACK 06 AUDIO
    TITLE "3:cjc161_05081"
    INDEX 01 00:05:19
  TRACK 07 AUDIO
    TITLE "4:cjc161_05082"
    INDEX 01 00:06:38
  TRACK 08 AUDIO
    TITLE "5:cjc161_05083"
    INDEX 01 00:08:24
  TRACK 09 AUDIO
    TITLE "0:"
    INDEX 01 00:09:43
  TRACK 10 AUDIO
    TITLE "3:cjc161_05084"
    INDEX 01 00:09:72
  TRACK 11 AUDIO
    TITLE "4:cjc161_05085"
    INDEX 01 00:11:30
  TRACK 12 AUDIO
    TITLE "5:cjc161_05086"
    INDEX 01 00:13:60
  TRACK 13 AUDIO
    TITLE "6:cjc161_05087"
    INDEX 01 00:15:10
  TRACK 14 AUDIO
    TITLE "0:"
    INDEX 01 00:17:19
  TRACK 15 AUDIO
    TITLE "3:cjc161_05088"
    INDEX 01 00:17:46
  TRACK 16 AUDIO
    TITLE "4:cjc161_05089"
    INDEX 01 00:19:08
  TRACK 17 AUDIO
    TITLE "5:cjc161_05090"
    INDEX 01 00:20:52
  TRACK 18 AUDIO
    TITLE "6:cjc161_05091"
    INDEX 01 00:22:10
  TRACK 19 AUDIO
    TITLE "0:"
    INDEX 01 00:25:46
  TRACK 20 AUDIO
    TITLE "3:cjc161_05092"
    INDEX 01 00:25:75
  TRACK 21 AUDIO
    TITLE "4:cjc161_05093"
    INDEX 01 00:27:09
  TRACK 22 AUDIO
    TITLE "5:cjc161_05094"
    INDEX 01 00:28:07
  TRACK 23 AUDIO
    TITLE "0:"
    INDEX 01 00:29:16
  TRACK 24 AUDIO
    TITLE "3:cjc161_05095"
    INDEX 01 00:29:57
  TRACK 25 AUDIO
    TITLE "4:cjc161_05096"
    INDEX 01 00:31:07
  TRACK 26 AUDIO
    TITLE "5:cjc161_05097"
    INDEX 01 00:32:14
  TRACK 27 AUDIO
    TITLE "6:cjc161_05098"
    INDEX 01 00:33:37
  TRACK 28 AUDIO
    TITLE "0:"
    INDEX 01 00:37:33
  TRACK 29 AUDIO
    TITLE "3:cjc161_05099"
    INDEX 01 00:37:64
  TRACK 30 AUDIO
    TITLE "4:cjc161_05100"
    INDEX 01 00:39:03
  TRACK 31 AUDIO
    TITLE "5:cjc161_05101"
    INDEX 01 00:41:35
  TRACK 32 AUDIO
    TITLE "6:cjc161_05102"
    INDEX 01 00:42:48
  TRACK 33 AUDIO
    TITLE "0:"
    INDEX 01 00:46:50
  TRACK 34 AUDIO
    TITLE "3:cjc161_05103"
    INDEX 01 00:47:06
  TRACK 35 AUDIO
    TITLE "4:cjc161_05104"
    INDEX 01 00:48:29
  TRACK 36 AUDIO
    TITLE "5:cjc161_05105"
    INDEX 01 00:49:21
  TRACK 37 AUDIO
    TITLE "0:"
    INDEX 01 00:50:45
  TRACK 38 AUDIO
    TITLE "3:cjc161_05106"
    INDEX 01 00:51:12
  TRACK 39 AUDIO
    TITLE "4:cjc161_05107"
    INDEX 01 00:52:21
  TRACK 40 AUDIO
    TITLE "5:cjc161_05108"
    INDEX 01 00:54:65
  TRACK 41 AUDIO
    TITLE "6:cjc161_05109"
    INDEX 01 00:55:74
  TRACK 42 AUDIO
    TITLE "0:"
    INDEX 01 00:59:52
  TRACK 43 AUDIO
    TITLE "3:cjc161_05110"
    INDEX 01 01:00:12
  TRACK 44 AUDIO
    TITLE "4:cjc161_05111"
    INDEX 01 01:01:35
  TRACK 45 AUDIO
    TITLE "5:cjc161_05112"
    INDEX 01 01:02:27
  TRACK 46 AUDIO
    TITLE "0:"
    INDEX 01 01:03:54
  TRACK 47 AUDIO
    TITLE "3:cjc161_05113"
    INDEX 01 01:04:14
  TRACK 48 AUDIO
    TITLE "4:cjc161_05114"
    INDEX 01 01:05:27
  TRACK 49 AUDIO
    TITLE "5:cjc161_05115"
    INDEX 01 01:06:58
  TRACK 50 AUDIO
    TITLE "6:cjc161_05116"
    INDEX 01 01:07:71
  TRACK 51 AUDIO
    TITLE "0:"
    INDEX 01 01:11:73
  TRACK 52 AUDIO
    TITLE "3:cjc161_05117"
    INDEX 01 01:12:29
  TRACK 53 AUDIO
    TITLE "4:cjc161_05118"
    INDEX 01 01:13:56
  TRACK 54 AUDIO
    TITLE "5:cjc161_05119"
    INDEX 01 01:16:33
  TRACK 55 AUDIO
    TITLE "6:cjc161_05120"
    INDEX 01 01:17:58
  TRACK 56 AUDIO
    TITLE "0:"
    INDEX 01 01:22:61
  TRACK 57 AUDIO
    TITLE "3:cjc161_05121"
    INDEX 01 01:23:17
  TRACK 58 AUDIO
    TITLE "4:cjc161_05122"
    INDEX 01 01:24:44
  TRACK 59 AUDIO
    TITLE "5:cjc161_05123"
    INDEX 01 01:26:63
  TRACK 60 AUDIO
    TITLE "0:"
    INDEX 01 01:28:15
